<svg xmlns="http://www.w3.org/2000/svg" viewBox="0 0 600 600" role="img" aria-labelledby="title desc">
  <title id="title">Professional avatar portrait</title>
  <desc id="desc">Stylized professional headshot illustration.</desc>
  <defs>
    <linearGradient id="bg" x1="0" y1="0" x2="1" y2="1">
      <stop offset="0%" stop-color="#f6dfc8" />
      <stop offset="100%" stop-color="#d7b08a" />
    </linearGradient>
    <linearGradient id="shirt" x1="0" y1="0" x2="0" y2="1">
      <stop offset="0%" stop-color="#385f7f" />
      <stop offset="100%" stop-color="#27435a" />
    </linearGradient>
  </defs>
  <rect width="600" height="600" fill="url(#bg)" />
  <circle cx="300" cy="230" r="105" fill="#f4c69f" />
  <path d="M195 225c2-80 45-130 105-130s103 52 105 130c-14-10-28-16-42-18-34-6-77 15-131 18-13 1-25 1-37 0z" fill="#3f2d26" />
  <ellipse cx="258" cy="235" rx="8" ry="10" fill="#2e1b14" />
  <ellipse cx="342" cy="235" rx="8" ry="10" fill="#2e1b14" />
  <path d="M270 284c21 18 41 18 62 0" fill="none" stroke="#8a4c36" stroke-linecap="round" stroke-width="8" />
  <path d="M170 520c15-112 77-165 130-165s115 53 130 165" fill="url(#shirt)" />
  <circle cx="300" cy="230" r="104" fill="none" stroke="#cb976f" stroke-width="4" />
</svg>
